<svg width="273" height="28" xmlns="http://www.w3.org/2000/svg" xmlns:xlink="http://www.w3.org/1999/xlink"><defs><path id="a" d="M27.49 27.853H0V.206h27.49v27.647z"/></defs><g fill="none" fill-rule="evenodd"><mask id="b" fill="#fff"><use xlink:href="#a"/></mask><path d="M4.632 28H27.49V4.888s0-4.682-4.633-4.682H4.63S0 .206 0 4.888V23.32S0 28 4.632 28zm14.664-13.86c.872-1.007 1.494-2.11 1.754-3.144.148-.575.185-1.132.088-1.64-.425-2.245-3.265-2.673-6.35-.973l-.423-2.213-3.267 1.822.53 2.776c.34-.216.675-.352.984-.383 1.04-.111 1.33 1.036.658 2.556a6.674 6.674 0 01-.943 1.496l.62 3.255.002.004.008.057c.473 2.203 3.315 2.608 6.395.887 3.049-1.702 5.189-4.846 4.875-7.096-.123.904-1.003 2.011-2.18 2.665-1.252.697-2.408.65-2.748-.06 0-.004-.003-.004-.003-.009zm-9.135 1.756c-1.04.103-1.334-1.044-.659-2.567a6.612 6.612 0 011.089-1.657l-.586-3.068-6.425 3.588 1.856 9.759 6.425-3.584-.563-2.967c-.392.275-.785.46-1.137.496z" fill="#FFF" mask="url(#b)"/><path d="M45.51 20.081v-5.067h-4.675v5.067h-2.453V8.027h2.453v4.725h4.676V8.027h2.45V20.08h-2.45M56.213 10.183c-1.928 0-3.59 1.435-3.59 3.932 0 2.599 1.747 3.91 3.59 3.91 1.958 0 3.605-1.272 3.605-3.89 0-2.532-1.557-3.952-3.605-3.952zm-.14 10.171c-3.399 0-6.059-2.52-6.059-6.067 0-3.662 2.624-6.474 6.25-6.474 3.503 0 6.182 2.42 6.182 6.108 0 3.825-2.735 6.433-6.374 6.433zM70.656 20.283c-3.393 0-6.546-1.533-6.546-6.182 0-4.095 2.75-6.256 6.48-6.256 1.908 0 3.188.55 3.747.977l-.683 2.353c-.561-.459-1.77-1.041-3.204-1.041-2.014 0-3.658 1.258-3.658 3.967 0 2.672 1.661 4.052 4.115 4.052.522 0 1.416-.044 1.785-.319v-3.448h2.38v4.777c-.806.548-2.414 1.12-4.416 1.12M77.492 20.081V8.027h7.214V10.2H79.96v2.533h4.343v2.195H79.96v2.982h5.186v2.171h-7.654M91.082 20.295c-2.137 0-3.366-.69-4.207-1.181l.527-2.59c.926.765 2.556 1.487 3.503 1.487 1.103 0 1.734-.511 1.734-1.22 0-.725-.386-1.226-1.21-1.487l-1.61-.533c-2.366-.78-2.61-1.982-2.61-3.576 0-1.508 1.505-3.382 3.922-3.382 1.822 0 2.662.263 3.678.97l-.576 2.589c-1.103-.99-1.963-1.263-2.942-1.263-.896 0-1.542.516-1.542 1.032 0 .653.37 1.007 1.258 1.307l1.49.498c2.244.74 2.732 2.017 2.732 3.71 0 1.885-1.803 3.64-4.147 3.64M102.888 20.283c-2.964 0-5.94-1.562-5.94-5.996 0-3.75 2.136-6.405 6.078-6.405 2.17 0 3.568.987 3.568.987l-.82 2.373c-.841-.668-1.645-1.01-2.886-1.01-2.053 0-3.401 1.494-3.401 3.793 0 2.802 2.03 3.826 3.765 3.826 1.368 0 2.084-.32 2.908-1.024l.84 2.215c-1.244.97-2.645 1.24-4.112 1.24M116.49 20.081v-5.067h-4.673v5.067h-2.453V8.027h2.453v4.725h4.673V8.027h2.451V20.08h-2.45M127.193 10.183c-1.926 0-3.59 1.435-3.59 3.932 0 2.599 1.751 3.91 3.59 3.91 1.963 0 3.607-1.272 3.607-3.89 0-2.532-1.557-3.952-3.607-3.952zm-.141 10.171c-3.398 0-6.058-2.52-6.058-6.067 0-3.662 2.626-6.474 6.25-6.474 3.503 0 6.184 2.42 6.184 6.108 0 3.825-2.73 6.433-6.376 6.433zM141.27 10.183c-1.927 0-3.59 1.435-3.59 3.932 0 2.599 1.755 3.91 3.59 3.91 1.964 0 3.611-1.272 3.611-3.89 0-2.532-1.562-3.952-3.612-3.952zm-.137 10.171c-3.398 0-6.06-2.52-6.06-6.067 0-3.662 2.628-6.474 6.25-6.474 3.502 0 6.184 2.42 6.184 6.108 0 3.825-2.735 6.433-6.374 6.433zM149.654 20.081V8.027h2.456v9.824h5.2v2.23h-7.656M170.792 10.18c-.384 0-.84.03-1.17.07v3.188s.72.088 1.17.088c1.071 0 1.63-.73 1.63-1.759 0-.894-.612-1.586-1.63-1.586zm3.014 10.061l-3.432-4.75-.733-.017v4.706h-2.454V8.16S169.27 8 170.702 8c2.842 0 4.188 1.363 4.188 3.706 0 1.795-1.067 2.974-1.905 3.397l3.484 4.6-2.663.538zM183.013 10.284c-1.924 0-3.59 1.432-3.59 3.93 0 2.603 1.748 3.92 3.59 3.92 1.96 0 3.612-1.282 3.612-3.906 0-2.522-1.56-3.944-3.612-3.944zm-.136 10.163c-3.396 0-6.06-2.51-6.06-6.056 0-3.665 2.627-6.48 6.254-6.48 3.5 0 6.177 2.424 6.177 6.109 0 3.826-2.728 6.427-6.371 6.427zM196.324 10.48v9.7h-2.453v-9.668h-3.377V8.14h9.175v2.34h-3.345M207.14 10.48v9.7h-2.443v-9.668h-3.381V8.14h9.174v2.34h-3.35M212.28 20.18V8.125h7.21V10.3h-4.744v2.535h4.343v2.193h-4.343v2.977h5.186v2.174h-7.652M226.026 10.18c-.388 0-.842.03-1.18.07v3.188s.721.088 1.18.088c1.067 0 1.625-.73 1.625-1.759 0-.894-.61-1.586-1.625-1.586zm3.01 10.061l-3.432-4.75-.734-.017v4.706h-2.456V8.16s2.09-.16 3.52-.16c2.84 0 4.183 1.363 4.183 3.706 0 1.795-1.064 2.974-1.902 3.397l3.483 4.6-2.662.538zM237.458 10.18c-.625 0-1.715.087-1.715.087v7.773c.315.11.945.212 1.84.212 2.102 0 3.589-1.983 3.589-4.257 0-2.505-1.963-3.814-3.714-3.814zm-.42 10.216c-1.774 0-3.78-.26-3.78-.26V8.14s2.171-.229 3.923-.229c4.707 0 6.546 2.55 6.546 5.743 0 3.48-1.749 6.742-6.69 6.742zM249.88 11.296l-1.53 3.964h2.926l-1.396-3.964zm3.24 8.923l-1.229-3.028h-4.168l-1.224 2.989h-2.558l5.028-12.04h2.116l4.659 12.054-2.624.025zM269.932 20.219l-1.63-6.975-3.153 6.95h-1.752l-3.067-6.95-1.47 6.95-2.385-.014 2.616-11.861h2.026l3.33 8.007 3.624-8.186h1.785l2.806 12.04-2.73.039" fill="#FFF"/></g></svg>
