<svg width="156" height="27" xmlns="http://www.w3.org/2000/svg"><path d="M5.83 12.405c-1.622 0-2.385 1.478-2.385 3.463 0 1.992.763 3.44 2.386 3.44 1.623 0 2.41-1.645 2.41-3.44 0-1.963-.787-3.463-2.41-3.463H5.83zm0 10.166C2.46 22.57 0 19.826 0 15.87c0-3.95 2.46-6.725 5.83-6.725 3.372 0 5.857 2.774 5.857 6.725 0 3.957-2.485 6.703-5.856 6.703l-.001-.002zm14.33-.538h-3.49l-4.65-12.89h3.739l1.893 5.966c.32.976.666 2.207.812 2.82.146-.636.49-1.813.813-2.82l1.894-5.967h3.64l-4.652 12.89.001.001zm10.9-9.945c-1.228 0-1.99 1.008-2.114 2.31h4.427c-.098-1.155-.786-2.31-2.313-2.31zm5.56 4.862h-7.724c.124 1.767 1.425 2.43 2.657 2.43.934 0 1.722-.344 2.215-.905l2.408 2.01c-1.032 1.33-2.9 2.086-4.623 2.086-3.715 0-6.075-2.624-6.075-6.702 0-3.95 2.484-6.725 5.754-6.725 3.445 0 5.438 3.043 5.438 6.725 0 .49-.027.837-.05 1.082v-.001zm10.152-3.585c-.542-.49-1.21-.835-1.97-.835-1.33 0-2.188.566-2.188 2.798v6.975h-3.397V9.413h3.397v.858a3.57 3.57 0 012.654-1.127c1.107 0 1.944.444 2.385.908l-.88 3.315-.001-.002zm9.271 8.021c-.564.437-1.573.782-2.63.782-2.09 0-3.446-1.617-3.446-3.878v-6.087h-2.163V9.01h2.163V5.696L53.364 4v5.01h3.098v3.193h-3.098v5.18c0 1.23.44 1.543 1.253 1.543.615 0 1.08-.267 1.92-.98l-.494 3.44zm11.333-8.021c-.54-.49-1.204-.835-1.967-.835-1.328 0-2.19.566-2.19 2.798v6.975h-3.394V9.413h3.395v.858a3.575 3.575 0 012.656-1.127c1.11 0 1.94.444 2.388.908l-.888 3.315v-.002zm8.338-1.277c-1.228 0-1.99 1.008-2.114 2.31h4.424c-.097-1.155-.785-2.31-2.31-2.31zm5.557 4.862h-7.72c.123 1.767 1.425 2.43 2.658 2.43.935 0 1.72-.344 2.212-.905l2.408 2.01c-1.032 1.33-2.9 2.086-4.62 2.086-3.716 0-6.078-2.624-6.078-6.702 0-3.95 2.486-6.725 5.755-6.725 3.444 0 5.44 3.043 5.44 6.725 0 .49-.026.837-.054 1.082l-.001-.001zM90.07 6.825c-1.007 0-1.254.32-1.254 1.03v1.082h2.19v3.193h-2.19v9.697H85.42V12.13h-1.55V8.936h1.55V7.39c0-2.405 1.328-3.39 3.69-3.39.834 0 1.548.125 2.143.37v2.724a2.464 2.464 0 00-1.182-.27l-.001.001zm11.08-.199c-.766 0-1.353-.586-1.353-1.3 0-.735.587-1.326 1.353-1.326.69 0 1.276.59 1.276 1.327 0 .713-.587 1.3-1.276 1.3v-.001zm-2.928 19.94l-.613-1.377c2.333-.715 2.58-1.327 2.58-3.682V8.938h1.844V21.53c0 2.943-.568 4.222-3.812 5.033l.001.003zm13.286-15.826c-1.917 0-3.246 1.372-3.464 4.243H115c-.144-2.5-1.227-4.242-3.492-4.242v-.001zm5.143 5.743h-8.606c.17 2.748 1.477 4.494 3.59 4.494 1.498 0 2.386-.438 3.568-1.228l.857 1.328c-1.55.977-2.68 1.493-4.623 1.493-2.36 0-5.24-1.717-5.24-6.774 0-4.104 2.266-6.653 5.338-6.653 3.373 0 5.19 2.65 5.19 6.332 0 .44-.024.712-.074 1.008zm1.566 5.55v-1.35l7.06-9.994h-6.49V9.142h8.582v1.348l-7.064 9.996h7.063v1.547h-9.153.002zm17.339-11.293c-1.92 0-3.25 1.372-3.472 4.243h6.96c-.148-2.5-1.228-4.242-3.488-4.242v-.001zm5.14 5.743h-8.612c.175 2.748 1.478 4.494 3.592 4.494 1.5 0 2.39-.438 3.567-1.228l.863 1.328c-1.55.977-2.685 1.493-4.624 1.493-2.365 0-5.243-1.717-5.243-6.774 0-4.104 2.266-6.653 5.34-6.653 3.37 0 5.188 2.65 5.188 6.332 0 .44-.024.712-.073 1.008h.002zm3.282 5.417V5.035L145.818 4v17.9h-1.84zm10.095-16.23c-.764 0-1.33.27-1.33 1.35v1.917h2.54v1.546h-2.54v11.344H150.9V10.483h-1.77V8.937h1.77V7.17c0-2.31 1.255-3.17 3.05-3.17.736 0 1.18.075 1.624.22v1.746c-.42-.197-.91-.295-1.5-.295l-.001-.001z" fill="#FFF" fill-rule="evenodd"/></svg>
